<svg width="30" height="29" viewBox="0 0 30 29" fill="none" xmlns="http://www.w3.org/2000/svg">
<path d="M14.9952 0.783203C7.22139 0.783203 0.919434 7.08516 0.919434 14.859C0.919434 22.6329 7.22139 28.9348 14.9952 28.9348C22.7691 28.9348 29.0711 22.6329 29.0711 14.859C29.062 7.08891 22.7654 0.792252 14.9952 0.783203Z" fill="#5243C2" fill-opacity="0.15"/>
<path d="M23.1195 10.4024L15.0904 21.2982C14.8989 21.5523 14.6134 21.7187 14.298 21.7602C13.9826 21.8017 13.6637 21.7147 13.4131 21.5187L7.67951 16.9347C7.17357 16.5298 7.09164 15.7914 7.49653 15.2855C7.90142 14.7795 8.6398 14.6976 9.14574 15.1025L13.9268 18.9276L21.231 9.01471C21.4705 8.6553 21.8882 8.45659 22.3181 8.49747C22.7481 8.53835 23.1208 8.81222 23.2883 9.21033C23.4558 9.60845 23.3909 10.0664 23.1195 10.4024Z" fill="#012555"/>
</svg>
