<svg width="32" height="32" viewBox="0 0 32 32" fill="none" xmlns="http://www.w3.org/2000/svg">
<mask id="mask0_645_126" style="mask-type:luminance" maskUnits="userSpaceOnUse" x="0" y="0" width="32" height="32">
<rect width="32" height="32" fill="white"/>
</mask>
<g mask="url(#mask0_645_126)">
<path d="M13.6702 7.8457L14.0414 13.3656L14.2257 16.14C14.2277 16.4254 14.2723 16.7088 14.3586 16.9812C14.5811 17.51 15.1166 17.846 15.6991 17.8226L24.5754 17.2419C24.9598 17.2356 25.331 17.3794 25.6073 17.6416C25.8375 17.8602 25.9862 18.146 26.0331 18.4535L26.0489 18.6402C25.6815 23.7264 21.9459 27.9688 16.8702 29.0639C11.7944 30.159 6.58947 27.8456 4.08127 23.3798C3.35818 22.0823 2.90652 20.6563 2.75283 19.1852C2.68863 18.7498 2.66036 18.3099 2.6683 17.8699C2.66036 12.4169 6.54362 7.70253 11.9794 6.56601C12.6337 6.46413 13.275 6.81048 13.5374 7.40729C13.6053 7.5455 13.6501 7.69353 13.6702 7.8457Z" fill="#012555"/>
<path opacity="0.4" d="M29.3337 13.0829L29.3244 13.1263L29.2975 13.1895L29.3012 13.363C29.2873 13.5928 29.1985 13.8138 29.0457 13.9925C28.8864 14.1785 28.6688 14.3052 28.4292 14.3544L28.2831 14.3744L18.042 15.038C17.7013 15.0716 17.3621 14.9617 17.1089 14.7358C16.8977 14.5474 16.7628 14.2933 16.7247 14.0194L16.0373 3.79325C16.0253 3.75868 16.0253 3.7212 16.0373 3.68661C16.0467 3.40473 16.1708 3.13829 16.3819 2.94681C16.5928 2.75533 16.8733 2.65477 17.1604 2.6676C23.2403 2.82228 28.3501 7.19422 29.3337 13.0829Z" fill="#012555"/>
</g>
</svg>
